<?xml version="1.0" standalone="no"?>
<!DOCTYPE svg PUBLIC "-//W3C//DTD SVG 20010904//EN"
 "http://www.w3.org/TR/2001/REC-SVG-20010904/DTD/svg10.dtd">
<svg version="1.0" xmlns="http://www.w3.org/2000/svg"
 width="700.000000pt" height="700.000000pt" viewBox="0 0 700.000000 700.000000"
 preserveAspectRatio="xMidYMid meet">
<metadata>
Created by potrace 1.14, written by Peter Selinger 2001-2017
</metadata>
<g transform="translate(0.000000,700.000000) scale(0.100000,-0.100000)"
fill="#000000" stroke="none">
<path d="M1387 6414 c-1 -1 -27 -4 -57 -7 -65 -7 -190 -47 -263 -83 -252 -128
-442 -389 -475 -654 -4 -30 -6 -1018 -6 -2195 l0 -2140 23 -85 c79 -294 273
-509 556 -615 60 -23 85 -29 181 -43 28 -5 1011 -8 2185 -7 l2134 1 85 23
c164 44 293 116 406 229 124 123 206 276 242 450 17 89 18 181 17 2235 l-1
2142 -23 85 c-85 321 -322 559 -641 642 l-85 22 -2138 1 c-1175 1 -2138 1
-2140 -1z m4248 -597 c87 -29 155 -99 185 -192 10 -31 13 -197 14 -775 1 -404
0 -742 -2 -750 -3 -14 -240 -16 -2333 -16 l-2329 0 -1 31 c0 16 -1 354 -1 750
-1 810 -3 782 73 868 45 52 108 86 175 95 26 4 975 7 2108 6 1897 -1 2065 -2
2111 -17z m196 -2334 c7 -32 2 -2047 -5 -2085 -16 -89 -97 -181 -187 -214 -40
-15 -227 -16 -2139 -16 -1895 0 -2099 1 -2138 16 -85 31 -153 102 -182 191
-11 32 -13 244 -12 1065 0 564 1 1033 1 1043 1 16 119 17 2330 17 2210 0 2329
-1 2332 -17z"/>
<path d="M1912 5450 c-99 -28 -151 -59 -227 -135 -78 -78 -116 -145 -141 -252
-60 -254 102 -521 361 -596 69 -20 188 -21 260 -2 178 46 315 180 370 361 17
57 17 195 -1 261 -31 121 -127 249 -233 311 -111 65 -269 87 -389 52z"/>
<path d="M3415 5236 c-77 -24 -138 -76 -178 -151 -30 -55 -31 -191 -2 -250 27
-55 93 -119 151 -145 l49 -22 745 -2 c410 0 772 2 805 5 76 8 127 31 181 85
58 58 87 138 81 220 -6 80 -37 143 -98 198 -88 79 -44 76 -918 75 -597 0 -785
-3 -816 -13z"/>
<path d="M3975 3184 c-54 -21 -91 -56 -412 -376 -194 -194 -354 -350 -357
-348 -3 3 -96 95 -208 206 -218 216 -253 241 -352 247 -55 4 -100 -5 -156 -30
-52 -23 -962 -934 -997 -998 -25 -44 -28 -61 -28 -135 0 -70 4 -93 24 -130 29
-54 77 -102 133 -132 63 -33 194 -33 258 1 29 15 169 147 391 369 191 189 350
345 354 345 9 0 165 -153 165 -162 0 -4 -21 -27 -46 -51 -119 -116 -148 -241
-86 -368 69 -142 243 -202 386 -133 36 18 167 142 542 517 272 272 495 494
497 494 2 0 223 -220 493 -490 335 -335 505 -498 539 -517 44 -25 61 -28 135
-28 69 0 93 5 128 23 60 32 109 83 137 143 34 75 31 183 -8 254 -20 36 -206
229 -640 662 -668 668 -651 653 -772 659 -46 2 -76 -3 -120 -22z"/>
</g>
</svg>
